HIERARCHY
ROOT SpineBase
{
  OFFSET 0.000000 0.000000 0.000000
  CHANNELS 6 Xposition Yposition Zposition Zrotation Xrotation Yrotation
  JOINT SpineMid
  {
    OFFSET 0.000000 28.657188 0.000000
    CHANNELS 3 Zrotation Xrotation Yrotation
    JOINT SpineShoulder
    {
      OFFSET 0.027613 21.315269 -0.732332
      CHANNELS 3 Zrotation Xrotation Yrotation
      JOINT Neck
      {
        OFFSET 0.003018 7.060859 -0.559441
        CHANNELS 3 Zrotation Xrotation Yrotation
        JOINT Head
        {
          OFFSET -2.076940 11.579859 1.128178
          CHANNELS 3 Zrotation Xrotation Yrotation
          End Site
          {
            OFFSET 0 0 0
          }
        }
      }
      JOINT ShoulderLeft
      {
        OFFSET -16.164705 -2.086401 2.958269
        CHANNELS 3 Zrotation Xrotation Yrotation
        JOINT ElbowLeft
        {
          OFFSET -5.916139 -24.910372 2.233321
          CHANNELS 3 Zrotation Xrotation Yrotation
          JOINT WristLeft
          {
            OFFSET -3.154515 -18.953399 -4.822572
            CHANNELS 3 Zrotation Xrotation Yrotation
            JOINT HandLeft
            {
              OFFSET 0.471406 -7.702667 -0.626144
              CHANNELS 3 Zrotation Xrotation Yrotation
              JOINT HandTipLeft
              {
                OFFSET 0.185515 -6.457874 -2.172082
                CHANNELS 3 Zrotation Xrotation Yrotation
                End Site
                {
                  OFFSET 0 0 0
                }
              }
              JOINT ThumbLeft
              {
                OFFSET -2.580354 -0.323914 -1.631764
                CHANNELS 3 Zrotation Xrotation Yrotation
                End Site
                {
                  OFFSET 0 0 0
                }
              }
            }
          }
        }
      }
      JOINT ShoulderRight
      {
        OFFSET 14.858275 -2.392588 -6.896910
        CHANNELS 3 Zrotation Xrotation Yrotation
        JOINT ElbowRight
        {
          OFFSET 6.265067 -24.793304 -4.835442
          CHANNELS 3 Zrotation Xrotation Yrotation
          JOINT WristRight
          {
            OFFSET 0.064037 -19.101573 -6.111632
            CHANNELS 3 Zrotation Xrotation Yrotation
            JOINT HandRight
            {
              OFFSET -2.051569 -8.341835 -0.263298
              CHANNELS 3 Zrotation Xrotation Yrotation
              JOINT HandTipRight
              {
                OFFSET -0.457460 -6.902406 -2.189127
                CHANNELS 3 Zrotation Xrotation Yrotation
                End Site
                {
                  OFFSET 0 0 0
                }
              }
              JOINT ThumbRight
              {
                OFFSET 2.255572 1.218506 -2.103706
                CHANNELS 3 Zrotation Xrotation Yrotation
                End Site
                {
                  OFFSET 0 0 0
                }
              }
            }
          }
        }
      }
    }
  }
  JOINT HipLeft
  {
    OFFSET -7.209629 0.373370 -0.899622
    CHANNELS 3 Zrotation Xrotation Yrotation
    JOINT KneeLeft
    {
      OFFSET -7.356131 -28.614377 2.195176
      CHANNELS 3 Zrotation Xrotation Yrotation
      JOINT AnkleLeft
      {
        OFFSET -1.089400 -38.657235 5.066977
        CHANNELS 3 Zrotation Xrotation Yrotation
        JOINT FootLeft
        {
          OFFSET -2.873991 -3.088138 -12.685240
          CHANNELS 3 Zrotation Xrotation Yrotation
          End Site
          {
            OFFSET 0 0 0
          }
        }
      }
    }
  }
  JOINT HipRight
  {
    OFFSET 6.840674 1.297769 -5.891967
    CHANNELS 3 Zrotation Xrotation Yrotation
    JOINT KneeRight
    {
      OFFSET 3.707127 -30.484010 2.822815
      CHANNELS 3 Zrotation Xrotation Yrotation
      JOINT AnkleRight
      {
        OFFSET -0.059320 -34.589275 6.096531
        CHANNELS 3 Zrotation Xrotation Yrotation
        JOINT FootRight
        {
          OFFSET -3.817796 -1.974442 -14.362058
          CHANNELS 3 Zrotation Xrotation Yrotation
          End Site
          {
            OFFSET 0 0 0
          }
        }
      }
    }
  }
}
MOTION
Frames: 13
Frame Time: 0.033333
21.233227 71.370899 367.961017 0.738212 -3.585806 7.260348 0.099746 -0.605302 -7.201684 -0.817112 -0.893630 0.003430 2.786689 -4.271486 -1.992686 0.000000 0.000000 0.000000 -0.875815 -21.322167 6.047816 9.704728 0.273506 -6.466625 -7.380976 -22.361027 -3.355981 -38.896952 46.065011 37.808689 0.000000 0.000000 0.000000 0.000000 0.000000 0.000000 9.754189 -31.216659 -9.491038 -10.365087 3.086103 14.975657 23.058244 -1.223323 1.013366 -30.606158 25.313258 6.331117 0.000000 0.000000 0.000000 0.000000 0.000000 0.000000 2.854868 0.826970 -6.461545 -4.094853 1.225381 -0.844312 0.855821 0.151945 0.200530 0.000000 0.000000 0.000000 -0.849259 8.488161 -6.698504 3.078428 -4.977890 0.084557 -0.132552 -6.414260 -1.211748 0.000000 0.000000 0.000000
21.160040 71.273884 368.190801 0.533616 -3.947449 6.842216 -0.501560 -0.805810 -6.798805 -1.168039 -0.886529 -0.049378 3.587640 -4.485237 -2.088539 0.000000 0.000000 0.000000 -1.991010 -24.238894 6.321844 10.337491 3.133989 -7.006464 -5.411985 -22.600940 -4.556625 -39.648430 43.972148 38.266750 0.000000 0.000000 0.000000 0.000000 0.000000 0.000000 11.950110 -29.336527 -9.270628 -6.313479 0.273268 11.996336 19.853111 7.615220 -0.274397 -25.002516 22.262802 1.179209 0.000000 0.000000 0.000000 0.000000 0.000000 0.000000 2.921748 1.470468 -6.159475 -3.568135 1.119569 -0.745445 0.686183 -0.052356 -0.459542 0.000000 0.000000 0.000000 -0.700552 9.271517 -6.231405 3.369958 -5.407450 0.116765 -0.281905 -6.494012 -1.879769 0.000000 0.000000 0.000000
21.086709 71.170242 368.385398 0.217676 -4.237102 6.364266 -0.960448 -0.896509 -6.345354 -1.284894 -0.744872 -0.088182 3.827966 -6.063816 -2.321057 0.000000 0.000000 0.000000 -3.305449 -30.471571 7.063223 13.462695 8.207718 -9.947041 -8.348608 -21.677766 -4.155050 -44.584564 41.868086 44.947002 0.000000 0.000000 0.000000 0.000000 0.000000 0.000000 14.563547 -27.970212 -9.059610 -2.928470 -1.865576 9.516881 17.779323 15.528356 -1.887802 -21.316263 13.784922 -2.049948 0.000000 0.000000 0.000000 0.000000 0.000000 0.000000 3.031340 1.997849 -5.790355 -3.054419 0.961925 -0.653672 0.598822 -0.120473 -1.266874 0.000000 0.000000 0.000000 -0.536783 9.994581 -5.708962 3.494673 -5.647834 0.092469 -0.193828 -6.727667 -2.662536 0.000000 0.000000 0.000000
20.924752 71.083952 368.675120 -0.231418 -4.768275 5.731695 -0.888475 -0.775337 -5.743854 -1.094742 -0.559062 -0.094214 1.993403 -8.056306 -2.537094 0.000000 0.000000 0.000000 -8.254695 -37.992094 6.648841 20.715017 12.862663 -15.222500 -10.426310 -19.982541 -3.222357 -47.897546 44.920784 48.764589 0.000000 0.000000 0.000000 0.000000 0.000000 0.000000 18.045264 -25.322008 -8.701025 -1.471396 -4.482227 7.932047 17.508070 21.760748 -4.307015 -14.824835 5.747877 -5.983566 0.000000 0.000000 0.000000 0.000000 0.000000 0.000000 3.371425 2.908235 -5.333543 -2.702186 0.533809 -0.533201 0.593648 -0.129958 -2.000438 0.000000 0.000000 0.000000 -0.197854 11.057059 -5.026506 3.446827 -5.895099 0.016765 0.022914 -7.105946 -3.354561 0.000000 0.000000 0.000000
20.714899 71.016574 369.006678 -1.113750 -5.268694 5.079614 -1.110753 -0.416130 -5.158070 -1.157767 -0.319249 -0.144721 3.997401 -10.964956 -3.078962 0.000000 0.000000 0.000000 -14.254959 -44.970478 4.517781 31.509047 14.340946 -23.164665 -10.380810 -18.662621 -1.613886 -31.360642 60.849052 30.420563 0.000000 0.000000 0.000000 0.000000 0.000000 0.000000 23.528185 -22.351802 -8.366051 -0.396591 -4.677099 5.864910 14.852260 23.271647 -3.480100 -9.194449 -0.278671 -8.080337 0.000000 0.000000 0.000000 0.000000 0.000000 0.000000 4.168759 3.744763 -4.894974 -2.433963 0.078701 -0.417205 0.584371 -0.042221 -2.611051 0.000000 0.000000 0.000000 0.779356 11.603996 -4.433479 2.817265 -5.535911 -0.158644 0.542130 -7.577374 -3.864631 0.000000 0.000000 0.000000
20.505678 70.981028 369.344752 -1.888397 -5.630217 4.395890 -0.913347 0.032997 -4.532893 -0.584728 -0.123140 -0.150739 3.114091 -14.506956 -3.644060 0.000000 0.000000 0.000000 -23.958179 -48.829645 0.025525 40.304386 11.232765 -28.222845 -7.023461 -11.993468 -1.858138 -3.469433 56.451917 -1.225436 0.000000 0.000000 0.000000 0.000000 0.000000 0.000000 27.917433 -18.561635 -8.142650 -0.593481 -3.977828 4.005869 16.103354 19.656245 -2.034383 -7.829178 0.497521 -10.794602 0.000000 0.000000 0.000000 0.000000 0.000000 0.000000 5.054536 4.517250 -4.435668 -2.438744 -0.490869 -0.303588 0.558981 0.097216 -2.917213 0.000000 0.000000 0.000000 1.416474 11.831364 -3.824476 2.735636 -4.801371 -0.187999 0.676512 -8.199721 -4.124989 0.000000 0.000000 0.000000
20.302152 70.984055 369.675100 -2.734816 -5.910592 3.609535 -1.095744 0.303913 -3.809331 -0.358462 -0.163095 -0.192972 4.655114 -16.360086 -3.993343 0.000000 0.000000 0.000000 -32.195374 -50.310193 -4.475842 43.168356 7.667639 -28.189710 6.668644 7.038322 -9.765197 -3.137091 37.252152 -8.309749 0.000000 0.000000 0.000000 0.000000 0.000000 0.000000 32.094598 -13.167113 -8.252810 0.422589 -3.711790 1.488827 14.277931 15.676287 1.447293 -5.428439 6.628822 -15.122609 0.000000 0.000000 0.000000 0.000000 0.000000 0.000000 6.031425 5.033036 -3.828255 -2.511650 -0.718834 -0.246549 0.560312 0.115127 -3.320627 0.000000 0.000000 0.000000 2.037271 11.883899 -3.133849 2.831206 -3.973255 -0.165159 0.690334 -8.804097 -4.512394 0.000000 0.000000 0.000000
20.140744 71.029816 369.941362 -3.622958 -6.115247 2.942238 -1.419771 0.506173 -3.205097 -0.121805 -0.189340 -0.242976 8.230877 -16.207853 -3.950841 0.000000 0.000000 0.000000 -39.217628 -48.573736 -8.158590 42.327267 3.819002 -23.877562 23.320898 20.287009 -22.106497 -8.507661 17.680805 -6.299231 0.000000 0.000000 0.000000 0.000000 0.000000 0.000000 34.914492 -8.314804 -8.434665 1.751378 -1.533108 -1.271144 15.177374 12.357086 3.342489 -7.147287 8.050041 -16.168029 0.000000 0.000000 0.000000 0.000000 0.000000 0.000000 6.881736 5.300097 -3.287268 -2.428359 -0.631946 -0.227768 0.570358 0.008441 -3.770578 0.000000 0.000000 0.000000 2.694413 11.652524 -2.599906 3.156602 -2.993483 -0.067151 0.488670 -9.346681 -4.993463 0.000000 0.000000 0.000000
20.005545 71.122984 370.196047 -4.307938 -6.104131 2.523823 -1.453834 0.625490 -2.836968 0.335032 -0.234905 -0.263808 9.800573 -16.387528 -3.948290 0.000000 0.000000 0.000000 -43.581264 -43.584645 -9.362434 38.165352 -1.009989 -16.286964 38.978891 24.880580 -33.258828 -15.098786 2.915673 -2.444781 0.000000 0.000000 0.000000 0.000000 0.000000 0.000000 35.409516 -4.797039 -8.399448 5.214722 2.469743 -4.872579 11.725399 8.545236 6.687977 -4.948194 10.938088 -18.082003 0.000000 0.000000 0.000000 0.000000 0.000000 0.000000 7.650404 5.316019 -2.946317 -2.481648 -0.537118 -0.226274 0.598636 -0.040997 -4.239305 0.000000 0.000000 0.000000 3.257106 11.195407 -2.298908 3.468081 -1.895113 0.028115 0.224610 -9.961947 -5.507112 0.000000 0.000000 0.000000
19.915007 71.224735 370.436484 -4.698634 -5.946299 2.245387 -1.302913 0.724645 -2.584531 0.682207 -0.258601 -0.263046 10.042210 -16.440862 -3.889884 0.000000 0.000000 0.000000 -45.242120 -36.157706 -8.478102 29.680902 -3.622315 -5.941231 50.471112 18.900964 -36.895599 -21.672578 -6.152656 1.470797 0.000000 0.000000 0.000000 0.000000 0.000000 0.000000 34.300656 -2.797594 -8.052588 11.448096 7.003845 -9.367811 2.864030 8.697478 6.822660 -1.220352 11.655728 -17.013095 0.000000 0.000000 0.000000 0.000000 0.000000 0.000000 8.052776 5.084971 -2.661335 -2.503045 -0.067110 -0.260754 0.661553 -0.338366 -4.676441 0.000000 0.000000 0.000000 3.648353 10.793948 -2.081172 3.770002 -1.063696 0.110666 -0.133148 -10.496008 -6.024381 0.000000 0.000000 0.000000
19.834255 71.303666 370.634001 -4.943750 -5.625151 2.411832 -1.089444 0.737308 -2.764583 0.832722 -0.307589 -0.258898 9.562999 -16.254710 -3.785972 0.000000 0.000000 0.000000 -49.435855 -29.606268 -8.484571 22.368579 -1.736655 2.716379 48.557967 10.313190 -30.040844 -22.776571 -10.926081 5.633179 0.000000 0.000000 0.000000 0.000000 0.000000 0.000000 34.337753 0.053932 -7.898432 11.488893 9.175207 -10.507848 0.987007 7.218372 6.184563 -0.460305 6.587211 -13.198437 0.000000 0.000000 0.000000 0.000000 0.000000 0.000000 8.365775 4.523710 -2.745804 -3.191505 0.721610 -0.407588 1.260934 1.181220 -6.090678 0.000000 0.000000 0.000000 3.921135 10.202642 -2.285671 3.995503 -0.454354 0.172009 -0.736547 -8.773960 -7.087603 0.000000 0.000000 0.000000
19.774841 71.373346 370.822547 -4.986548 -5.320269 2.720227 -0.784012 0.738556 -3.071574 0.840110 -0.318161 -0.244305 8.698360 -15.021011 -3.521578 0.000000 0.000000 0.000000 -53.433346 -22.910174 -7.947205 19.242480 2.069574 8.385088 33.859779 0.970114 -20.529487 -17.973337 -10.586503 9.070861 0.000000 0.000000 0.000000 0.000000 0.000000 0.000000 33.027659 3.179712 -7.449460 11.393979 9.223711 -10.564225 0.989881 7.591118 4.526683 3.115878 -2.409564 -8.386470 0.000000 0.000000 0.000000 0.000000 0.000000 0.000000 8.599011 3.909433 -2.936753 -2.605268 1.584229 -0.412749 0.804706 -1.818902 -5.752943 0.000000 0.000000 0.000000 4.031246 9.955394 -2.571422 4.223838 -0.597212 0.221921 -0.483856 -11.151946 -7.393104 0.000000 0.000000 0.000000
19.730764 71.437391 370.956486 -4.832232 -5.018023 3.074636 -0.311314 0.723333 -3.411523 0.772195 -0.291340 -0.214233 6.827550 -13.153990 -3.137728 0.000000 0.000000 0.000000 -54.158517 -17.779203 -6.751130 16.775398 6.011765 11.769776 14.763090 2.001206 -12.634096 -10.205387 -13.543307 7.983304 0.000000 0.000000 0.000000 0.000000 0.000000 0.000000 30.770876 5.888710 -6.783630 9.737795 8.364871 -9.546729 2.226137 10.606027 1.219220 3.607119 -11.432560 -2.180993 0.000000 0.000000 0.000000 0.000000 0.000000 0.000000 8.541246 3.215930 -3.128283 -2.562596 2.242766 -0.500390 0.910344 -4.159243 -5.241333 0.000000 0.000000 0.000000 4.014535 9.868245 -2.868898 4.275921 -0.994205 0.231762 -0.208862 -13.036716 -7.466010 0.000000 0.000000 0.000000
